<?xml version="1.0" encoding="UTF-8" standalone="no"?>
<!DOCTYPE svg PUBLIC "-//W3C//DTD SVG 1.1//EN" "http://www.w3.org/Graphics/SVG/1.1/DTD/svg11.dtd">
<svg version="1.1" xmlns="http://www.w3.org/2000/svg" viewBox="0 0 100 100" width="100" height="100">
  <path d="M 53.28062 14.84109 C 47.80805 17.737452 43.100374 22.461423 40.2 30.8 C 38.653967 35.24484 38.555136 39.50295 39.29453 43.05556 C 37.51451 41.194866 35.828533 38.25342 35.27822 33.20889 C 34.388753 25.055426 37.235293 19.978675 38.76809 17.89719 C 42.943153 16.271257 47.65257 15.345604 53.091266 14.857516 C 53.15433 14.851857 53.217445 14.84638 53.280616 14.841086 Z M 75.16008 18.172697 C 82.42448 20.540965 87.69127 23.257516 87.69127 23.257516 C 87.69127 23.257516 63.89127 .457516 35.491266 14.657516 C 7.0912655 28.857516 10.091266 59.25752 10.091266 59.25752 C 10.091266 59.25752 11.291266 83.05752 34.891266 95.65752 C 58.491266 108.25752 81.63547 93.13223 85.6 88.4 C 89.56453 83.667775 98.43617 77.55686 99.29127 62.85752 C 100.14637 48.15817 97.4746 70.09575 89.8 77.8 C 82.1254 85.50425 70.69127 96.85752 57.891266 97.05752 C 46.02969 97.24285 35.885606 95.3672 28.095645 85.54172 C 31.571423 86.14409 36.41716 85.02663 37.82708 84.4 C 39.62708 83.6 42.42708 82.8 43.42708 77.2 C 43.642593 75.99312 43.774504 74.86056 43.848837 73.826335 C 44.15714 76.33905 45.903047 78.01942 48.449505 80 C 52.049505 82.8 56.449506 85 62.249506 83 C 68.049506 81 68.449506 73.2 68.049506 69.4 C 67.649506 65.6 62.849506 62.6 58.849506 62.8 C 54.849506 63 53.249506 68 52.449505 71.8 C 51.649505 75.6 56.249506 76.2 59.049506 76 C 61.849506 75.8 61.249506 74.2 61.249506 72.2 C 61.249506 70.2 59.049506 70 59.049506 70 L 58.849506 73 C 58.849506 73 57.649506 74.2 56.049506 73.4 C 54.449506 72.6 55.249506 72.2 55.849506 69.2 C 56.449506 66.2 59.449506 64.2 62.249506 65.6 C 65.049506 67 65.849506 69.6 65.049506 75.6 C 64.249506 81.6 54.449506 80 53.449506 79.4 C 52.449505 78.8 47.049505 76.8 47.049505 73.6 C 47.049505 70.4 49.249505 67.8 51.449505 65 C 52.403887 63.785334 53.621735 62.11901 54.694855 60.62148 C 58.38343 59.5448 62.425824 60.229154 66.6 62 C 72.21941 64.38397 78.8 61.00115 81.2 58.00115 C 83.6 55.00115 85.15792 48.862756 83.4 44.60115 C 81.64208 40.33954 79.48074 38.54391 75.8 37.20115 C 72.11926 35.858385 65.4 38.60115 63.2 41.40115 C 62.336435 42.50023 61.80273 43.819393 61.62171 45.244556 C 61.614674 45.16428 61.60743 45.082773 61.6 45 C 61.144836 39.93066 59.604004 39.00616 56.6 39 C 53.595995 38.99384 52.51618 40.084744 52 42.8 C 51.48382 45.515257 54.4 48.8 54 45.4 C 53.6 42 54 42.8 56.4 42.4 C 58.8 42 59.4 48 56 50 C 52.6 52 47.2 50.8 46.2 43.8 C 45.2 36.8 46 28.6 58.6 20.6 C 63.97736 17.185802 70.01042 17.12292 75.16008 18.17269 Z M 30.015244 22.993866 C 29.65458 24.303406 29.490837 25.947666 29.67822 28.00889 C 30.47822 36.80889 31.2 39.4 34.6 44.6 C 37.53636 49.090906 44.649575 52.388425 46.53495 53.204244 C 48.48951 54.257 50.647755 54.9343 52.77889 54.8811 C 50.45439 55.526883 48.92605 57.092465 45 58.40115 C 39 60.40115 37.488935 59.131885 29 54 C 22.02546 49.783627 21.516293 37.2399 21.556593 32.89857 C 24.16418 28.765854 26.938433 25.525338 30.015246 22.99387 Z M 16.65147 44.441706 C 16.975349 47.79112 17.71469 52.358915 19.4 55.2 C 21.592224 58.895644 25.349185 62.3476 29.798692 64.08834 C 29.55582 64.711955 29.4 65.4732 29.4 66.4 C 29.4 70.6 30.328195 70.7473 31.4 71.4 C 32.471803 72.0527 34.6 72.2 36.4 71.4 C 38.2 70.6 37 68.6 37 68.6 C 37 68.6 36.8 69.2 35.6 70 C 34.4 70.8 33.2 70.8 32.8 67.2 C 32.68405 66.15647 33.00503 65.49945 33.519378 65.09255 C 33.811264 65.136404 34.10487 65.17233 34.4 65.2 C 36.15057 65.36412 37.841286 65.468465 39.468056 65.46798 C 41.058453 67.5517 42.129916 71.84575 40.42708 74.4 C 38.42708 77.4 37.62708 79 30.62708 78.4 C 26.24589 78.02447 21.943048 72.94817 19.336727 69.20248 C 16.483679 61.323845 15.028645 52.51842 16.651462 44.441705 Z M 61.744244 48.240253 C 62.01083 49.563354 62.55769 50.908535 63.4 52.2 C 65.85917 55.9705 71.35809 54.818185 72.8 54 C 74.24191 53.181816 75.2 51.00115 75.6 47.80115 C 76 44.60115 72.2 44.80115 71.4 44.60115 C 70.6 44.40115 71 45.60115 72.2 46.20115 C 73.4 46.80115 73.4 49.80115 70.4 51.60115 C 67.4 53.40115 65.39306 49.29052 65.6 47.20115 C 65.80694 45.111775 66.4 44.00115 68.4 42.80115 C 70.4 41.60115 73.4 39.40115 77.4 42.20115 C 81.4 45.00115 81 50.80115 79 54.80115 C 77 58.80115 73.4 59.8 68 59 C 62.6 58.2 63.8 55.80115 57.6 54.80115 C 56.529106 54.628424 55.63125 54.5631 54.847684 54.58354 C 55.722036 54.34598 56.57845 53.96015 57.4 53.4 C 60.60013 51.21809 61.60777 50.44818 61.74425 48.240253 Z M 47.581953 64.19302 C 46.32089 65.51564 45.127777 67.188785 44.249505 70.2 C 44.109706 70.67931 44.00381 71.1327 43.930023 71.56334 C 43.92826 69.10591 43.62708 67.6 43.62708 67.6 L 42.31193 65.34546 C 44.16607 65.17584 45.925086 64.817465 47.581955 64.19303 Z" fill="#86738c"/>
</svg>
